<?xml version="1.0" encoding="UTF-8" standalone="no"?>
<!DOCTYPE svg PUBLIC "-//W3C//DTD SVG 1.1//EN"
 "http://www.w3.org/Graphics/SVG/1.1/DTD/svg11.dtd">
<!-- Generated by graphviz version 2.38.0 (20140413.2041)
 -->
<!-- Title: %3 Pages: 1 -->
<svg width="578pt" height="476pt"
 viewBox="0.00 0.00 578.00 476.00" xmlns="http://www.w3.org/2000/svg" xmlns:xlink="http://www.w3.org/1999/xlink">
<g id="graph0" class="graph" transform="scale(1 1) rotate(0) translate(4 472)">
<title>%3</title>
<polygon fill="white" stroke="none" points="-4,4 -4,-472 574,-472 574,4 -4,4"/>
<!-- review -->
<g id="node1" class="node"><title>review</title>
<polygon fill="none" stroke="black" points="220,-252 22,-252 22,-216 220,-216 220,-252"/>
<text text-anchor="middle" x="121" y="-230.3" font-family="Helvetica,sans-Serif" font-size="14.00">REVIEW (and close) positions</text>
</g>
<!-- purge -->
<g id="node2" class="node"><title>purge</title>
<polygon fill="none" stroke="black" points="289.5,-180 124.5,-180 124.5,-144 289.5,-144 289.5,-180"/>
<text text-anchor="middle" x="207" y="-158.3" font-family="Helvetica,sans-Serif" font-size="14.00">PURGE closed positions</text>
</g>
<!-- review&#45;&gt;purge -->
<g id="edge6" class="edge"><title>review&#45;&gt;purge</title>
<path fill="none" stroke="black" d="M142.258,-215.697C153.089,-206.881 166.418,-196.032 178.16,-186.474"/>
<polygon fill="black" stroke="black" points="180.44,-189.132 185.986,-180.104 176.021,-183.703 180.44,-189.132"/>
</g>
<!-- consolidate -->
<g id="node3" class="node"><title>consolidate</title>
<polygon fill="none" stroke="black" points="457.5,-108 110.5,-108 110.5,-72 457.5,-72 457.5,-108"/>
<text text-anchor="middle" x="284" y="-86.3" font-family="Helvetica,sans-Serif" font-size="14.00">CONSOLIDATE reviewed positions and new prospects</text>
</g>
<!-- purge&#45;&gt;consolidate -->
<g id="edge7" class="edge"><title>purge&#45;&gt;consolidate</title>
<path fill="none" stroke="black" d="M226.034,-143.697C235.545,-135.05 247.207,-124.449 257.57,-115.027"/>
<polygon fill="black" stroke="black" points="260.14,-117.421 265.185,-108.104 255.431,-112.241 260.14,-117.421"/>
</g>
<!-- index -->
<g id="node4" class="node"><title>index</title>
<polygon fill="none" stroke="black" points="401,-36 167,-36 167,-0 401,-0 401,-36"/>
<text text-anchor="middle" x="284" y="-14.3" font-family="Helvetica,sans-Serif" font-size="14.00">Create INDEX (web page summary)</text>
</g>
<!-- consolidate&#45;&gt;index -->
<g id="edge8" class="edge"><title>consolidate&#45;&gt;index</title>
<path fill="none" stroke="black" d="M284,-71.6966C284,-63.9827 284,-54.7125 284,-46.1124"/>
<polygon fill="black" stroke="black" points="287.5,-46.1043 284,-36.1043 280.5,-46.1044 287.5,-46.1043"/>
</g>
<!-- refresh -->
<g id="node5" class="node"><title>refresh</title>
<polygon fill="none" stroke="black" points="296,-324 0,-324 0,-288 296,-288 296,-324"/>
<text text-anchor="middle" x="148" y="-302.3" font-family="Helvetica,sans-Serif" font-size="14.00">REFRESH existing positions with recent prices</text>
</g>
<!-- refresh&#45;&gt;review -->
<g id="edge3" class="edge"><title>refresh&#45;&gt;review</title>
<path fill="none" stroke="black" d="M141.326,-287.697C138.285,-279.813 134.617,-270.304 131.239,-261.546"/>
<polygon fill="black" stroke="black" points="134.462,-260.175 127.597,-252.104 127.931,-262.694 134.462,-260.175"/>
</g>
<!-- Fetch all SYMBOLS from CryptoCompare -->
<g id="node6" class="node"><title>Fetch all SYMBOLS from CryptoCompare</title>
<polygon fill="none" stroke="black" points="370.5,-468 101.5,-468 101.5,-432 370.5,-432 370.5,-468"/>
<text text-anchor="middle" x="236" y="-446.3" font-family="Helvetica,sans-Serif" font-size="14.00">Fetch all SYMBOLS from CryptoCompare</text>
</g>
<!-- Fetch PRICES for symbols -->
<g id="node7" class="node"><title>Fetch PRICES for symbols</title>
<polygon fill="none" stroke="black" points="325,-396 147,-396 147,-360 325,-360 325,-396"/>
<text text-anchor="middle" x="236" y="-374.3" font-family="Helvetica,sans-Serif" font-size="14.00">Fetch PRICES for symbols</text>
</g>
<!-- Fetch all SYMBOLS from CryptoCompare&#45;&gt;Fetch PRICES for symbols -->
<g id="edge1" class="edge"><title>Fetch all SYMBOLS from CryptoCompare&#45;&gt;Fetch PRICES for symbols</title>
<path fill="none" stroke="black" d="M236,-431.697C236,-423.983 236,-414.712 236,-406.112"/>
<polygon fill="black" stroke="black" points="239.5,-406.104 236,-396.104 232.5,-406.104 239.5,-406.104"/>
</g>
<!-- Fetch PRICES for symbols&#45;&gt;refresh -->
<g id="edge2" class="edge"><title>Fetch PRICES for symbols&#45;&gt;refresh</title>
<path fill="none" stroke="black" d="M214.247,-359.697C203.164,-350.881 189.526,-340.032 177.51,-330.474"/>
<polygon fill="black" stroke="black" points="179.507,-327.59 169.503,-324.104 175.15,-333.069 179.507,-327.59"/>
</g>
<!-- Calculate PROSPECTS by executing strategy library -->
<g id="node8" class="node"><title>Calculate PROSPECTS by executing strategy library</title>
<polygon fill="none" stroke="black" points="570,-252 238,-252 238,-216 570,-216 570,-252"/>
<text text-anchor="middle" x="404" y="-230.3" font-family="Helvetica,sans-Serif" font-size="14.00">Calculate PROSPECTS by executing strategy library</text>
</g>
<!-- Fetch PRICES for symbols&#45;&gt;Calculate PROSPECTS by executing strategy library -->
<g id="edge4" class="edge"><title>Fetch PRICES for symbols&#45;&gt;Calculate PROSPECTS by executing strategy library</title>
<path fill="none" stroke="black" d="M259.35,-359.771C272.883,-349.611 290.133,-336.361 305,-324 330.573,-302.737 358.677,-277.258 378.386,-259.02"/>
<polygon fill="black" stroke="black" points="380.82,-261.537 385.766,-252.167 376.056,-256.407 380.82,-261.537"/>
</g>
<!-- Calculate PROSPECTS by executing strategy library&#45;&gt;consolidate -->
<g id="edge5" class="edge"><title>Calculate PROSPECTS by executing strategy library&#45;&gt;consolidate</title>
<path fill="none" stroke="black" d="M389.525,-215.871C368.533,-191.031 329.504,-144.846 305.246,-116.142"/>
<polygon fill="black" stroke="black" points="307.654,-113.568 298.526,-108.189 302.307,-118.086 307.654,-113.568"/>
</g>
</g>
</svg>
