<?xml version="1.0" encoding="UTF-8" standalone="no"?>
<!DOCTYPE svg PUBLIC "-//W3C//DTD SVG 1.1//EN"
 "http://www.w3.org/Graphics/SVG/1.1/DTD/svg11.dtd">
<!-- Generated by graphviz version 2.38.0 (20140413.2041)
 -->
<!-- Title: %3 Pages: 1 -->
<svg width="693pt" height="548pt"
 viewBox="0.00 0.00 693.31 548.00" xmlns="http://www.w3.org/2000/svg" xmlns:xlink="http://www.w3.org/1999/xlink">
<g id="graph0" class="graph" transform="scale(1 1) rotate(0) translate(4 544)">
<title>%3</title>
<polygon fill="white" stroke="none" points="-4,4 -4,-544 689.311,-544 689.311,4 -4,4"/>
<!-- Fetch all SYMBOLS from CryptoCompare -->
<g id="node1" class="node"><title>Fetch all SYMBOLS from CryptoCompare</title>
<ellipse fill="none" stroke="black" cx="405.781" cy="-522" rx="174.669" ry="18"/>
<text text-anchor="middle" x="405.781" y="-518.3" font-family="Helvetica,sans-Serif" font-size="14.00">Fetch all SYMBOLS from CryptoCompare</text>
</g>
<!-- Fetch PRICES for symbols -->
<g id="node2" class="node"><title>Fetch PRICES for symbols</title>
<ellipse fill="none" stroke="black" cx="405.781" cy="-450" rx="115.88" ry="18"/>
<text text-anchor="middle" x="405.781" y="-446.3" font-family="Helvetica,sans-Serif" font-size="14.00">Fetch PRICES for symbols</text>
</g>
<!-- Fetch all SYMBOLS from CryptoCompare&#45;&gt;Fetch PRICES for symbols -->
<g id="edge1" class="edge"><title>Fetch all SYMBOLS from CryptoCompare&#45;&gt;Fetch PRICES for symbols</title>
<path fill="none" stroke="black" d="M405.781,-503.697C405.781,-495.983 405.781,-486.712 405.781,-478.112"/>
<polygon fill="black" stroke="black" points="409.281,-478.104 405.781,-468.104 402.281,-478.104 409.281,-478.104"/>
</g>
<!-- REFRESH current positions with recent prices -->
<g id="node3" class="node"><title>REFRESH current positions with recent prices</title>
<ellipse fill="none" stroke="black" cx="405.781" cy="-378" rx="190.366" ry="18"/>
<text text-anchor="middle" x="405.781" y="-374.3" font-family="Helvetica,sans-Serif" font-size="14.00">REFRESH current positions with recent prices</text>
</g>
<!-- Fetch PRICES for symbols&#45;&gt;REFRESH current positions with recent prices -->
<g id="edge2" class="edge"><title>Fetch PRICES for symbols&#45;&gt;REFRESH current positions with recent prices</title>
<path fill="none" stroke="black" d="M405.781,-431.697C405.781,-423.983 405.781,-414.712 405.781,-406.112"/>
<polygon fill="black" stroke="black" points="409.281,-406.104 405.781,-396.104 402.281,-406.104 409.281,-406.104"/>
</g>
<!-- REVIEW and close existing positions -->
<g id="node4" class="node"><title>REVIEW and close existing positions</title>
<ellipse fill="none" stroke="black" cx="314.781" cy="-306" rx="155.173" ry="18"/>
<text text-anchor="middle" x="314.781" y="-302.3" font-family="Helvetica,sans-Serif" font-size="14.00">REVIEW and close existing positions</text>
</g>
<!-- REFRESH current positions with recent prices&#45;&gt;REVIEW and close existing positions -->
<g id="edge3" class="edge"><title>REFRESH current positions with recent prices&#45;&gt;REVIEW and close existing positions</title>
<path fill="none" stroke="black" d="M383.752,-360.055C372.102,-351.093 357.625,-339.957 344.946,-330.204"/>
<polygon fill="black" stroke="black" points="346.982,-327.355 336.922,-324.032 342.714,-332.903 346.982,-327.355"/>
</g>
<!-- Calculate PROSPECTS by executing strategy library -->
<g id="node5" class="node"><title>Calculate PROSPECTS by executing strategy library</title>
<ellipse fill="none" stroke="black" cx="215.781" cy="-234" rx="215.562" ry="18"/>
<text text-anchor="middle" x="215.781" y="-230.3" font-family="Helvetica,sans-Serif" font-size="14.00">Calculate PROSPECTS by executing strategy library</text>
</g>
<!-- REVIEW and close existing positions&#45;&gt;Calculate PROSPECTS by executing strategy library -->
<g id="edge4" class="edge"><title>REVIEW and close existing positions&#45;&gt;Calculate PROSPECTS by executing strategy library</title>
<path fill="none" stroke="black" d="M290.816,-288.055C278.021,-279.008 262.091,-267.744 248.204,-257.926"/>
<polygon fill="black" stroke="black" points="250.054,-254.947 239.868,-252.032 246.013,-260.663 250.054,-254.947"/>
</g>
<!-- CONSOLIDATE reviewed positions and new prospects -->
<g id="node6" class="node"><title>CONSOLIDATE reviewed positions and new prospects</title>
<ellipse fill="none" stroke="black" cx="459.781" cy="-162" rx="225.56" ry="18"/>
<text text-anchor="middle" x="459.781" y="-158.3" font-family="Helvetica,sans-Serif" font-size="14.00">CONSOLIDATE reviewed positions and new prospects</text>
</g>
<!-- REVIEW and close existing positions&#45;&gt;CONSOLIDATE reviewed positions and new prospects -->
<g id="edge8" class="edge"><title>REVIEW and close existing positions&#45;&gt;CONSOLIDATE reviewed positions and new prospects</title>
<path fill="none" stroke="black" d="M382.904,-289.705C404.234,-281.758 426.026,-269.823 440.781,-252 454.996,-234.828 459.313,-209.55 460.325,-190.317"/>
<polygon fill="black" stroke="black" points="463.83,-190.158 460.589,-180.072 456.833,-189.978 463.83,-190.158"/>
</g>
<!-- Calculate PROSPECTS by executing strategy library&#45;&gt;CONSOLIDATE reviewed positions and new prospects -->
<g id="edge5" class="edge"><title>Calculate PROSPECTS by executing strategy library&#45;&gt;CONSOLIDATE reviewed positions and new prospects</title>
<path fill="none" stroke="black" d="M272.988,-216.588C308.805,-206.313 355.118,-193.026 392.667,-182.254"/>
<polygon fill="black" stroke="black" points="393.863,-185.552 402.51,-179.43 391.932,-178.824 393.863,-185.552"/>
</g>
<!-- CONSOLIDATE reviewed positions and new prospects&#45;&gt;REFRESH current positions with recent prices -->
<g id="edge9" class="edge"><title>CONSOLIDATE reviewed positions and new prospects&#45;&gt;REFRESH current positions with recent prices</title>
<path fill="none" stroke="black" d="M467.761,-180.086C480.837,-210.748 503.067,-276.356 478.781,-324 472.49,-336.342 461.831,-346.483 450.574,-354.47"/>
<polygon fill="black" stroke="black" points="448.349,-351.744 441.911,-360.158 452.191,-357.595 448.349,-351.744"/>
</g>
<!-- Create SUMMARY of trades for this period -->
<g id="node7" class="node"><title>Create SUMMARY of trades for this period</title>
<ellipse fill="none" stroke="black" cx="459.781" cy="-90" rx="177.369" ry="18"/>
<text text-anchor="middle" x="459.781" y="-86.3" font-family="Helvetica,sans-Serif" font-size="14.00">Create SUMMARY of trades for this period</text>
</g>
<!-- CONSOLIDATE reviewed positions and new prospects&#45;&gt;Create SUMMARY of trades for this period -->
<g id="edge6" class="edge"><title>CONSOLIDATE reviewed positions and new prospects&#45;&gt;Create SUMMARY of trades for this period</title>
<path fill="none" stroke="black" d="M459.781,-143.697C459.781,-135.983 459.781,-126.712 459.781,-118.112"/>
<polygon fill="black" stroke="black" points="463.281,-118.104 459.781,-108.104 456.281,-118.104 463.281,-118.104"/>
</g>
<!-- RENDER report -->
<g id="node8" class="node"><title>RENDER report</title>
<ellipse fill="none" stroke="black" cx="459.781" cy="-18" rx="73.387" ry="18"/>
<text text-anchor="middle" x="459.781" y="-14.3" font-family="Helvetica,sans-Serif" font-size="14.00">RENDER report</text>
</g>
<!-- Create SUMMARY of trades for this period&#45;&gt;RENDER report -->
<g id="edge7" class="edge"><title>Create SUMMARY of trades for this period&#45;&gt;RENDER report</title>
<path fill="none" stroke="black" d="M459.781,-71.6966C459.781,-63.9827 459.781,-54.7125 459.781,-46.1124"/>
<polygon fill="black" stroke="black" points="463.281,-46.1043 459.781,-36.1043 456.281,-46.1044 463.281,-46.1043"/>
</g>
</g>
</svg>
