<?xml version="1.0" encoding="UTF-8" standalone="no"?>
<!DOCTYPE svg PUBLIC "-//W3C//DTD SVG 1.1//EN"
 "http://www.w3.org/Graphics/SVG/1.1/DTD/svg11.dtd">
<!-- Generated by graphviz version 2.38.0 (20140413.2041)
 -->
<!-- Title: %3 Pages: 1 -->
<svg width="842pt" height="548pt"
 viewBox="0.00 0.00 841.51 548.00" xmlns="http://www.w3.org/2000/svg" xmlns:xlink="http://www.w3.org/1999/xlink">
<g id="graph0" class="graph" transform="scale(1 1) rotate(0) translate(4 544)">
<title>%3</title>
<polygon fill="white" stroke="none" points="-4,4 -4,-544 837.514,-544 837.514,4 -4,4"/>
<!-- Fetch all SYMBOLS from CryptoCompare -->
<g id="node1" class="node"><title>Fetch all SYMBOLS from CryptoCompare</title>
<ellipse fill="none" stroke="black" cx="404.733" cy="-522" rx="174.669" ry="18"/>
<text text-anchor="middle" x="404.733" y="-518.3" font-family="Helvetica,sans-Serif" font-size="14.00">Fetch all SYMBOLS from CryptoCompare</text>
</g>
<!-- Fetch PRICES for symbols -->
<g id="node2" class="node"><title>Fetch PRICES for symbols</title>
<ellipse fill="none" stroke="black" cx="404.733" cy="-450" rx="115.88" ry="18"/>
<text text-anchor="middle" x="404.733" y="-446.3" font-family="Helvetica,sans-Serif" font-size="14.00">Fetch PRICES for symbols</text>
</g>
<!-- Fetch all SYMBOLS from CryptoCompare&#45;&gt;Fetch PRICES for symbols -->
<g id="edge1" class="edge"><title>Fetch all SYMBOLS from CryptoCompare&#45;&gt;Fetch PRICES for symbols</title>
<path fill="none" stroke="black" d="M404.733,-503.697C404.733,-495.983 404.733,-486.712 404.733,-478.112"/>
<polygon fill="black" stroke="black" points="408.233,-478.104 404.733,-468.104 401.233,-478.104 408.233,-478.104"/>
</g>
<!-- REFRESH current positions with recent prices -->
<g id="node3" class="node"><title>REFRESH current positions with recent prices</title>
<ellipse fill="none" stroke="black" cx="243.733" cy="-378" rx="190.366" ry="18"/>
<text text-anchor="middle" x="243.733" y="-374.3" font-family="Helvetica,sans-Serif" font-size="14.00">REFRESH current positions with recent prices</text>
</g>
<!-- Fetch PRICES for symbols&#45;&gt;REFRESH current positions with recent prices -->
<g id="edge2" class="edge"><title>Fetch PRICES for symbols&#45;&gt;REFRESH current positions with recent prices</title>
<path fill="none" stroke="black" d="M367.796,-432.941C345.176,-423.106 315.988,-410.415 291.607,-399.815"/>
<polygon fill="black" stroke="black" points="292.744,-396.493 282.178,-395.715 289.953,-402.912 292.744,-396.493"/>
</g>
<!-- Calculate PROSPECTS by executing strategy library -->
<g id="node5" class="node"><title>Calculate PROSPECTS by executing strategy library</title>
<ellipse fill="none" stroke="black" cx="617.733" cy="-306" rx="215.562" ry="18"/>
<text text-anchor="middle" x="617.733" y="-302.3" font-family="Helvetica,sans-Serif" font-size="14.00">Calculate PROSPECTS by executing strategy library</text>
</g>
<!-- Fetch PRICES for symbols&#45;&gt;Calculate PROSPECTS by executing strategy library -->
<g id="edge4" class="edge"><title>Fetch PRICES for symbols&#45;&gt;Calculate PROSPECTS by executing strategy library</title>
<path fill="none" stroke="black" d="M430.003,-432.153C468.252,-406.654 540.915,-358.212 583.756,-329.652"/>
<polygon fill="black" stroke="black" points="585.785,-332.505 592.164,-324.046 581.902,-326.681 585.785,-332.505"/>
</g>
<!-- REVIEW and close or delete existing positions -->
<g id="node4" class="node"><title>REVIEW and close or delete existing positions</title>
<ellipse fill="none" stroke="black" cx="191.733" cy="-306" rx="191.966" ry="18"/>
<text text-anchor="middle" x="191.733" y="-302.3" font-family="Helvetica,sans-Serif" font-size="14.00">REVIEW and close or delete existing positions</text>
</g>
<!-- REFRESH current positions with recent prices&#45;&gt;REVIEW and close or delete existing positions -->
<g id="edge3" class="edge"><title>REFRESH current positions with recent prices&#45;&gt;REVIEW and close or delete existing positions</title>
<path fill="none" stroke="black" d="M230.879,-359.697C224.708,-351.389 217.196,-341.277 210.409,-332.141"/>
<polygon fill="black" stroke="black" points="213.212,-330.045 204.439,-324.104 207.593,-334.219 213.212,-330.045"/>
</g>
<!-- CONSOLIDATE reviewed positions and new prospects -->
<g id="node6" class="node"><title>CONSOLIDATE reviewed positions and new prospects</title>
<ellipse fill="none" stroke="black" cx="404.733" cy="-234" rx="225.56" ry="18"/>
<text text-anchor="middle" x="404.733" y="-230.3" font-family="Helvetica,sans-Serif" font-size="14.00">CONSOLIDATE reviewed positions and new prospects</text>
</g>
<!-- REVIEW and close or delete existing positions&#45;&gt;CONSOLIDATE reviewed positions and new prospects -->
<g id="edge6" class="edge"><title>REVIEW and close or delete existing positions&#45;&gt;CONSOLIDATE reviewed positions and new prospects</title>
<path fill="none" stroke="black" d="M241.672,-288.588C272.428,-278.481 312.049,-265.459 344.534,-254.784"/>
<polygon fill="black" stroke="black" points="345.961,-257.999 354.369,-251.552 343.776,-251.349 345.961,-257.999"/>
</g>
<!-- Calculate PROSPECTS by executing strategy library&#45;&gt;CONSOLIDATE reviewed positions and new prospects -->
<g id="edge5" class="edge"><title>Calculate PROSPECTS by executing strategy library&#45;&gt;CONSOLIDATE reviewed positions and new prospects</title>
<path fill="none" stroke="black" d="M567.255,-288.411C536.596,-278.335 497.277,-265.414 464.993,-254.804"/>
<polygon fill="black" stroke="black" points="465.81,-251.388 455.217,-251.591 463.625,-258.038 465.81,-251.388"/>
</g>
<!-- Create SUMMARY of trades for this period -->
<g id="node7" class="node"><title>Create SUMMARY of trades for this period</title>
<ellipse fill="none" stroke="black" cx="404.733" cy="-162" rx="177.369" ry="18"/>
<text text-anchor="middle" x="404.733" y="-158.3" font-family="Helvetica,sans-Serif" font-size="14.00">Create SUMMARY of trades for this period</text>
</g>
<!-- CONSOLIDATE reviewed positions and new prospects&#45;&gt;Create SUMMARY of trades for this period -->
<g id="edge7" class="edge"><title>CONSOLIDATE reviewed positions and new prospects&#45;&gt;Create SUMMARY of trades for this period</title>
<path fill="none" stroke="black" d="M404.733,-215.697C404.733,-207.983 404.733,-198.712 404.733,-190.112"/>
<polygon fill="black" stroke="black" points="408.233,-190.104 404.733,-180.104 401.233,-190.104 408.233,-190.104"/>
</g>
<!-- RENDER report (web page) -->
<g id="node8" class="node"><title>RENDER report (web page)</title>
<ellipse fill="none" stroke="black" cx="404.733" cy="-90" rx="119.679" ry="18"/>
<text text-anchor="middle" x="404.733" y="-86.3" font-family="Helvetica,sans-Serif" font-size="14.00">RENDER report (web page)</text>
</g>
<!-- Create SUMMARY of trades for this period&#45;&gt;RENDER report (web page) -->
<g id="edge8" class="edge"><title>Create SUMMARY of trades for this period&#45;&gt;RENDER report (web page)</title>
<path fill="none" stroke="black" d="M404.733,-143.697C404.733,-135.983 404.733,-126.712 404.733,-118.112"/>
<polygon fill="black" stroke="black" points="408.233,-118.104 404.733,-108.104 401.233,-118.104 408.233,-118.104"/>
</g>
<!-- Send ALERTs -->
<g id="node9" class="node"><title>Send ALERTs</title>
<ellipse fill="none" stroke="black" cx="404.733" cy="-18" rx="66.0889" ry="18"/>
<text text-anchor="middle" x="404.733" y="-14.3" font-family="Helvetica,sans-Serif" font-size="14.00">Send ALERTs</text>
</g>
<!-- RENDER report (web page)&#45;&gt;Send ALERTs -->
<g id="edge9" class="edge"><title>RENDER report (web page)&#45;&gt;Send ALERTs</title>
<path fill="none" stroke="black" d="M404.733,-71.6966C404.733,-63.9827 404.733,-54.7125 404.733,-46.1124"/>
<polygon fill="black" stroke="black" points="408.233,-46.1043 404.733,-36.1043 401.233,-46.1044 408.233,-46.1043"/>
</g>
</g>
</svg>
