<?xml version="1.0" encoding="UTF-8" standalone="no"?>
<!DOCTYPE svg PUBLIC "-//W3C//DTD SVG 1.1//EN"
 "http://www.w3.org/Graphics/SVG/1.1/DTD/svg11.dtd">
<!-- Generated by graphviz version 2.38.0 (20140413.2041)
 -->
<!-- Title: %3 Pages: 1 -->
<svg width="552pt" height="476pt"
 viewBox="0.00 0.00 552.00 476.00" xmlns="http://www.w3.org/2000/svg" xmlns:xlink="http://www.w3.org/1999/xlink">
<g id="graph0" class="graph" transform="scale(1 1) rotate(0) translate(4 472)">
<title>%3</title>
<polygon fill="white" stroke="none" points="-4,4 -4,-472 548,-472 548,4 -4,4"/>
<!-- review -->
<g id="node1" class="node"><title>review</title>
<polygon fill="none" stroke="black" points="194,-252 66,-252 66,-216 194,-216 194,-252"/>
<text text-anchor="middle" x="130" y="-230.3" font-family="Helvetica,sans-Serif" font-size="14.00">REVIEW positions</text>
</g>
<!-- purge -->
<g id="node2" class="node"><title>purge</title>
<polygon fill="none" stroke="black" points="280.5,-180 115.5,-180 115.5,-144 280.5,-144 280.5,-180"/>
<text text-anchor="middle" x="198" y="-158.3" font-family="Helvetica,sans-Serif" font-size="14.00">PURGE closed positions</text>
</g>
<!-- review&#45;&gt;purge -->
<g id="edge6" class="edge"><title>review&#45;&gt;purge</title>
<path fill="none" stroke="black" d="M146.809,-215.697C155.126,-207.135 165.305,-196.656 174.39,-187.304"/>
<polygon fill="black" stroke="black" points="176.927,-189.716 181.384,-180.104 171.906,-184.838 176.927,-189.716"/>
</g>
<!-- consolidate -->
<g id="node3" class="node"><title>consolidate</title>
<polygon fill="none" stroke="black" points="443.5,-108 96.5,-108 96.5,-72 443.5,-72 443.5,-108"/>
<text text-anchor="middle" x="270" y="-86.3" font-family="Helvetica,sans-Serif" font-size="14.00">CONSOLIDATE reviewed positions and new prospects</text>
</g>
<!-- purge&#45;&gt;consolidate -->
<g id="edge7" class="edge"><title>purge&#45;&gt;consolidate</title>
<path fill="none" stroke="black" d="M215.798,-143.697C224.604,-135.135 235.382,-124.656 245.001,-115.304"/>
<polygon fill="black" stroke="black" points="247.677,-117.585 252.407,-108.104 242.797,-112.566 247.677,-117.585"/>
</g>
<!-- index -->
<g id="node4" class="node"><title>index</title>
<polygon fill="none" stroke="black" points="387,-36 153,-36 153,-0 387,-0 387,-36"/>
<text text-anchor="middle" x="270" y="-14.3" font-family="Helvetica,sans-Serif" font-size="14.00">Create INDEX (web page summary)</text>
</g>
<!-- consolidate&#45;&gt;index -->
<g id="edge8" class="edge"><title>consolidate&#45;&gt;index</title>
<path fill="none" stroke="black" d="M270,-71.6966C270,-63.9827 270,-54.7125 270,-46.1124"/>
<polygon fill="black" stroke="black" points="273.5,-46.1043 270,-36.1043 266.5,-46.1044 273.5,-46.1043"/>
</g>
<!-- refresh -->
<g id="node5" class="node"><title>refresh</title>
<polygon fill="none" stroke="black" points="296,-324 0,-324 0,-288 296,-288 296,-324"/>
<text text-anchor="middle" x="148" y="-302.3" font-family="Helvetica,sans-Serif" font-size="14.00">REFRESH existing positions with recent prices</text>
</g>
<!-- refresh&#45;&gt;review -->
<g id="edge3" class="edge"><title>refresh&#45;&gt;review</title>
<path fill="none" stroke="black" d="M143.551,-287.697C141.545,-279.898 139.131,-270.509 136.899,-261.829"/>
<polygon fill="black" stroke="black" points="140.278,-260.918 134.398,-252.104 133.499,-262.661 140.278,-260.918"/>
</g>
<!-- Fetch all SYMBOLS from CryptoCompare -->
<g id="node6" class="node"><title>Fetch all SYMBOLS from CryptoCompare</title>
<polygon fill="none" stroke="black" points="370.5,-468 101.5,-468 101.5,-432 370.5,-432 370.5,-468"/>
<text text-anchor="middle" x="236" y="-446.3" font-family="Helvetica,sans-Serif" font-size="14.00">Fetch all SYMBOLS from CryptoCompare</text>
</g>
<!-- Fetch PRICES for symbols -->
<g id="node7" class="node"><title>Fetch PRICES for symbols</title>
<polygon fill="none" stroke="black" points="325,-396 147,-396 147,-360 325,-360 325,-396"/>
<text text-anchor="middle" x="236" y="-374.3" font-family="Helvetica,sans-Serif" font-size="14.00">Fetch PRICES for symbols</text>
</g>
<!-- Fetch all SYMBOLS from CryptoCompare&#45;&gt;Fetch PRICES for symbols -->
<g id="edge1" class="edge"><title>Fetch all SYMBOLS from CryptoCompare&#45;&gt;Fetch PRICES for symbols</title>
<path fill="none" stroke="black" d="M236,-431.697C236,-423.983 236,-414.712 236,-406.112"/>
<polygon fill="black" stroke="black" points="239.5,-406.104 236,-396.104 232.5,-406.104 239.5,-406.104"/>
</g>
<!-- Fetch PRICES for symbols&#45;&gt;refresh -->
<g id="edge2" class="edge"><title>Fetch PRICES for symbols&#45;&gt;refresh</title>
<path fill="none" stroke="black" d="M214.247,-359.697C203.164,-350.881 189.526,-340.032 177.51,-330.474"/>
<polygon fill="black" stroke="black" points="179.507,-327.59 169.503,-324.104 175.15,-333.069 179.507,-327.59"/>
</g>
<!-- Calculate PROSPECTS by executing strategy library -->
<g id="node8" class="node"><title>Calculate PROSPECTS by executing strategy library</title>
<polygon fill="none" stroke="black" points="544,-252 212,-252 212,-216 544,-216 544,-252"/>
<text text-anchor="middle" x="378" y="-230.3" font-family="Helvetica,sans-Serif" font-size="14.00">Calculate PROSPECTS by executing strategy library</text>
</g>
<!-- Fetch PRICES for symbols&#45;&gt;Calculate PROSPECTS by executing strategy library -->
<g id="edge4" class="edge"><title>Fetch PRICES for symbols&#45;&gt;Calculate PROSPECTS by executing strategy library</title>
<path fill="none" stroke="black" d="M261.058,-359.888C274.668,-350.08 291.437,-337.136 305,-324 325.447,-304.196 345.741,-278.876 359.721,-260.31"/>
<polygon fill="black" stroke="black" points="362.707,-262.16 365.864,-252.046 357.089,-257.984 362.707,-262.16"/>
</g>
<!-- Calculate PROSPECTS by executing strategy library&#45;&gt;consolidate -->
<g id="edge5" class="edge"><title>Calculate PROSPECTS by executing strategy library&#45;&gt;consolidate</title>
<path fill="none" stroke="black" d="M364.973,-215.871C346.161,-191.137 311.255,-145.242 289.404,-116.512"/>
<polygon fill="black" stroke="black" points="291.913,-114.03 283.074,-108.189 286.341,-118.268 291.913,-114.03"/>
</g>
</g>
</svg>
