<?xml version="1.0" encoding="UTF-8" standalone="no"?>
<!DOCTYPE svg PUBLIC "-//W3C//DTD SVG 1.1//EN"
 "http://www.w3.org/Graphics/SVG/1.1/DTD/svg11.dtd">
<!-- Generated by graphviz version 2.38.0 (20140413.2041)
 -->
<!-- Title: %3 Pages: 1 -->
<svg width="578pt" height="476pt"
 viewBox="0.00 0.00 578.00 476.00" xmlns="http://www.w3.org/2000/svg" xmlns:xlink="http://www.w3.org/1999/xlink">
<g id="graph0" class="graph" transform="scale(1 1) rotate(0) translate(4 472)">
<title>%3</title>
<polygon fill="white" stroke="none" points="-4,4 -4,-472 574,-472 574,4 -4,4"/>
<!-- review -->
<g id="node1" class="node"><title>review</title>
<polygon fill="none" stroke="black" points="220,-252 22,-252 22,-216 220,-216 220,-252"/>
<text text-anchor="middle" x="121" y="-230.3" font-family="Helvetica,sans-Serif" font-size="14.00">REVIEW (and close) positions</text>
</g>
<!-- purge -->
<g id="node2" class="node"><title>purge</title>
<polygon fill="none" stroke="black" points="345.5,-180 180.5,-180 180.5,-144 345.5,-144 345.5,-180"/>
<text text-anchor="middle" x="263" y="-158.3" font-family="Helvetica,sans-Serif" font-size="14.00">PURGE closed positions</text>
</g>
<!-- review&#45;&gt;purge -->
<g id="edge6" class="edge"><title>review&#45;&gt;purge</title>
<path fill="none" stroke="black" d="M155.737,-215.876C174.819,-206.469 198.679,-194.708 219.047,-184.667"/>
<polygon fill="black" stroke="black" points="220.708,-187.751 228.129,-180.19 217.612,-181.472 220.708,-187.751"/>
</g>
<!-- balance -->
<g id="node4" class="node"><title>balance</title>
<polygon fill="none" stroke="black" points="184.5,-108 57.5,-108 57.5,-72 184.5,-72 184.5,-108"/>
<text text-anchor="middle" x="121" y="-86.3" font-family="Helvetica,sans-Serif" font-size="14.00">Update BALANCE</text>
</g>
<!-- review&#45;&gt;balance -->
<g id="edge9" class="edge"><title>review&#45;&gt;balance</title>
<path fill="none" stroke="black" d="M121,-215.871C121,-191.67 121,-147.211 121,-118.393"/>
<polygon fill="black" stroke="black" points="124.5,-118.189 121,-108.189 117.5,-118.189 124.5,-118.189"/>
</g>
<!-- consolidate -->
<g id="node3" class="node"><title>consolidate</title>
<polygon fill="none" stroke="black" points="549.5,-108 202.5,-108 202.5,-72 549.5,-72 549.5,-108"/>
<text text-anchor="middle" x="376" y="-86.3" font-family="Helvetica,sans-Serif" font-size="14.00">CONSOLIDATE reviewed positions and new prospects</text>
</g>
<!-- purge&#45;&gt;consolidate -->
<g id="edge7" class="edge"><title>purge&#45;&gt;consolidate</title>
<path fill="none" stroke="black" d="M290.643,-143.876C305.418,-134.724 323.791,-123.342 339.703,-113.485"/>
<polygon fill="black" stroke="black" points="341.593,-116.431 348.251,-108.19 337.907,-110.481 341.593,-116.431"/>
</g>
<!-- index -->
<g id="node5" class="node"><title>index</title>
<polygon fill="none" stroke="black" points="365,-36 131,-36 131,-0 365,-0 365,-36"/>
<text text-anchor="middle" x="248" y="-14.3" font-family="Helvetica,sans-Serif" font-size="14.00">Create INDEX (web page summary)</text>
</g>
<!-- consolidate&#45;&gt;index -->
<g id="edge8" class="edge"><title>consolidate&#45;&gt;index</title>
<path fill="none" stroke="black" d="M344.688,-71.8761C327.797,-62.6388 306.753,-51.1308 288.615,-41.2116"/>
<polygon fill="black" stroke="black" points="289.886,-37.9171 279.433,-36.1898 286.527,-44.0587 289.886,-37.9171"/>
</g>
<!-- balance&#45;&gt;index -->
<g id="edge10" class="edge"><title>balance&#45;&gt;index</title>
<path fill="none" stroke="black" d="M152.068,-71.8761C168.827,-62.6388 189.706,-51.1308 207.702,-41.2116"/>
<polygon fill="black" stroke="black" points="209.745,-44.0822 216.813,-36.1898 206.366,-37.9517 209.745,-44.0822"/>
</g>
<!-- refresh -->
<g id="node6" class="node"><title>refresh</title>
<polygon fill="none" stroke="black" points="296,-324 0,-324 0,-288 296,-288 296,-324"/>
<text text-anchor="middle" x="148" y="-302.3" font-family="Helvetica,sans-Serif" font-size="14.00">REFRESH existing positions with recent prices</text>
</g>
<!-- refresh&#45;&gt;review -->
<g id="edge3" class="edge"><title>refresh&#45;&gt;review</title>
<path fill="none" stroke="black" d="M141.326,-287.697C138.285,-279.813 134.617,-270.304 131.239,-261.546"/>
<polygon fill="black" stroke="black" points="134.462,-260.175 127.597,-252.104 127.931,-262.694 134.462,-260.175"/>
</g>
<!-- Fetch all SYMBOLS from CryptoCompare -->
<g id="node7" class="node"><title>Fetch all SYMBOLS from CryptoCompare</title>
<polygon fill="none" stroke="black" points="370.5,-468 101.5,-468 101.5,-432 370.5,-432 370.5,-468"/>
<text text-anchor="middle" x="236" y="-446.3" font-family="Helvetica,sans-Serif" font-size="14.00">Fetch all SYMBOLS from CryptoCompare</text>
</g>
<!-- Fetch PRICES for symbols -->
<g id="node8" class="node"><title>Fetch PRICES for symbols</title>
<polygon fill="none" stroke="black" points="325,-396 147,-396 147,-360 325,-360 325,-396"/>
<text text-anchor="middle" x="236" y="-374.3" font-family="Helvetica,sans-Serif" font-size="14.00">Fetch PRICES for symbols</text>
</g>
<!-- Fetch all SYMBOLS from CryptoCompare&#45;&gt;Fetch PRICES for symbols -->
<g id="edge1" class="edge"><title>Fetch all SYMBOLS from CryptoCompare&#45;&gt;Fetch PRICES for symbols</title>
<path fill="none" stroke="black" d="M236,-431.697C236,-423.983 236,-414.712 236,-406.112"/>
<polygon fill="black" stroke="black" points="239.5,-406.104 236,-396.104 232.5,-406.104 239.5,-406.104"/>
</g>
<!-- Fetch PRICES for symbols&#45;&gt;refresh -->
<g id="edge2" class="edge"><title>Fetch PRICES for symbols&#45;&gt;refresh</title>
<path fill="none" stroke="black" d="M214.247,-359.697C203.164,-350.881 189.526,-340.032 177.51,-330.474"/>
<polygon fill="black" stroke="black" points="179.507,-327.59 169.503,-324.104 175.15,-333.069 179.507,-327.59"/>
</g>
<!-- Calculate PROSPECTS by executing strategy library -->
<g id="node9" class="node"><title>Calculate PROSPECTS by executing strategy library</title>
<polygon fill="none" stroke="black" points="570,-252 238,-252 238,-216 570,-216 570,-252"/>
<text text-anchor="middle" x="404" y="-230.3" font-family="Helvetica,sans-Serif" font-size="14.00">Calculate PROSPECTS by executing strategy library</text>
</g>
<!-- Fetch PRICES for symbols&#45;&gt;Calculate PROSPECTS by executing strategy library -->
<g id="edge4" class="edge"><title>Fetch PRICES for symbols&#45;&gt;Calculate PROSPECTS by executing strategy library</title>
<path fill="none" stroke="black" d="M259.35,-359.771C272.883,-349.611 290.133,-336.361 305,-324 330.573,-302.737 358.677,-277.258 378.386,-259.02"/>
<polygon fill="black" stroke="black" points="380.82,-261.537 385.766,-252.167 376.056,-256.407 380.82,-261.537"/>
</g>
<!-- Calculate PROSPECTS by executing strategy library&#45;&gt;consolidate -->
<g id="edge5" class="edge"><title>Calculate PROSPECTS by executing strategy library&#45;&gt;consolidate</title>
<path fill="none" stroke="black" d="M400.623,-215.871C395.829,-191.564 387.007,-146.819 381.327,-118.013"/>
<polygon fill="black" stroke="black" points="384.758,-117.323 379.389,-108.189 377.89,-118.677 384.758,-117.323"/>
</g>
</g>
</svg>
