<?xml version="1.0" encoding="UTF-8" standalone="no"?>
<!DOCTYPE svg PUBLIC "-//W3C//DTD SVG 1.1//EN"
 "http://www.w3.org/Graphics/SVG/1.1/DTD/svg11.dtd">
<!-- Generated by graphviz version 2.38.0 (20140413.2041)
 -->
<!-- Title: %3 Pages: 1 -->
<svg width="745pt" height="476pt"
 viewBox="0.00 0.00 744.77 476.00" xmlns="http://www.w3.org/2000/svg" xmlns:xlink="http://www.w3.org/1999/xlink">
<g id="graph0" class="graph" transform="scale(1 1) rotate(0) translate(4 472)">
<title>%3</title>
<polygon fill="white" stroke="none" points="-4,4 -4,-472 740.773,-472 740.773,4 -4,4"/>
<!-- review -->
<g id="node1" class="node"><title>review</title>
<ellipse fill="none" stroke="black" cx="171.992" cy="-234" rx="115.08" ry="18"/>
<text text-anchor="middle" x="171.992" y="-230.3" font-family="Helvetica,sans-Serif" font-size="14.00">REVIEW existing positions</text>
</g>
<!-- purge -->
<g id="node2" class="node"><title>purge</title>
<ellipse fill="none" stroke="black" cx="305.992" cy="-162" rx="187.367" ry="18"/>
<text text-anchor="middle" x="305.992" y="-158.3" font-family="Helvetica,sans-Serif" font-size="14.00">PURGE closed positions (old or ready to sell)</text>
</g>
<!-- review&#45;&gt;purge -->
<g id="edge6" class="edge"><title>review&#45;&gt;purge</title>
<path fill="none" stroke="black" d="M203.409,-216.588C221.707,-207.03 244.993,-194.865 264.752,-184.543"/>
<polygon fill="black" stroke="black" points="266.598,-187.528 273.841,-179.795 263.357,-181.323 266.598,-187.528"/>
</g>
<!-- balance -->
<g id="node4" class="node"><title>balance</title>
<ellipse fill="none" stroke="black" cx="90.9919" cy="-90" rx="90.9839" ry="18"/>
<text text-anchor="middle" x="90.9919" y="-86.3" font-family="Helvetica,sans-Serif" font-size="14.00">Calculate BALANCE</text>
</g>
<!-- review&#45;&gt;balance -->
<g id="edge9" class="edge"><title>review&#45;&gt;balance</title>
<path fill="none" stroke="black" d="M145.448,-216.382C132.85,-207.16 118.684,-194.602 109.992,-180 98.8455,-161.274 94.1946,-136.891 92.2756,-118.382"/>
<polygon fill="black" stroke="black" points="95.7498,-117.926 91.4329,-108.251 88.7739,-118.507 95.7498,-117.926"/>
</g>
<!-- consolidate -->
<g id="node3" class="node"><title>consolidate</title>
<ellipse fill="none" stroke="black" cx="417.992" cy="-90" rx="217.962" ry="18"/>
<text text-anchor="middle" x="417.992" y="-86.3" font-family="Helvetica,sans-Serif" font-size="14.00">CONSOLIDATE purged positions and new prospects</text>
</g>
<!-- purge&#45;&gt;consolidate -->
<g id="edge7" class="edge"><title>purge&#45;&gt;consolidate</title>
<path fill="none" stroke="black" d="M333.104,-144.055C347.853,-134.837 366.282,-123.319 382.198,-113.371"/>
<polygon fill="black" stroke="black" points="384.116,-116.3 390.741,-108.032 380.406,-110.364 384.116,-116.3"/>
</g>
<!-- index -->
<g id="node5" class="node"><title>index</title>
<ellipse fill="none" stroke="black" cx="253.992" cy="-18" rx="152.173" ry="18"/>
<text text-anchor="middle" x="253.992" y="-14.3" font-family="Helvetica,sans-Serif" font-size="14.00">Create INDEX (web page summary)</text>
</g>
<!-- consolidate&#45;&gt;index -->
<g id="edge8" class="edge"><title>consolidate&#45;&gt;index</title>
<path fill="none" stroke="black" d="M378.71,-72.2333C355.704,-62.4138 326.475,-49.9378 302.096,-39.5323"/>
<polygon fill="black" stroke="black" points="303.241,-36.2157 292.67,-35.509 300.493,-42.6538 303.241,-36.2157"/>
</g>
<!-- balance&#45;&gt;index -->
<g id="edge10" class="edge"><title>balance&#45;&gt;index</title>
<path fill="none" stroke="black" d="M127.167,-73.4647C150.454,-63.4643 180.979,-50.3554 206.246,-39.5042"/>
<polygon fill="black" stroke="black" points="207.839,-42.6292 215.647,-35.4672 205.077,-36.1972 207.839,-42.6292"/>
</g>
<!-- Fetch all SYMBOLS from CryptoCompare -->
<g id="node6" class="node"><title>Fetch all SYMBOLS from CryptoCompare</title>
<ellipse fill="none" stroke="black" cx="313.992" cy="-450" rx="174.669" ry="18"/>
<text text-anchor="middle" x="313.992" y="-446.3" font-family="Helvetica,sans-Serif" font-size="14.00">Fetch all SYMBOLS from CryptoCompare</text>
</g>
<!-- Fetch PRICES for symbols -->
<g id="node7" class="node"><title>Fetch PRICES for symbols</title>
<ellipse fill="none" stroke="black" cx="313.992" cy="-378" rx="115.88" ry="18"/>
<text text-anchor="middle" x="313.992" y="-374.3" font-family="Helvetica,sans-Serif" font-size="14.00">Fetch PRICES for symbols</text>
</g>
<!-- Fetch all SYMBOLS from CryptoCompare&#45;&gt;Fetch PRICES for symbols -->
<g id="edge1" class="edge"><title>Fetch all SYMBOLS from CryptoCompare&#45;&gt;Fetch PRICES for symbols</title>
<path fill="none" stroke="black" d="M313.992,-431.697C313.992,-423.983 313.992,-414.712 313.992,-406.112"/>
<polygon fill="black" stroke="black" points="317.492,-406.104 313.992,-396.104 310.492,-406.104 317.492,-406.104"/>
</g>
<!-- REFRESH current positions with recent prices -->
<g id="node8" class="node"><title>REFRESH current positions with recent prices</title>
<ellipse fill="none" stroke="black" cx="204.992" cy="-306" rx="190.366" ry="18"/>
<text text-anchor="middle" x="204.992" y="-302.3" font-family="Helvetica,sans-Serif" font-size="14.00">REFRESH current positions with recent prices</text>
</g>
<!-- Fetch PRICES for symbols&#45;&gt;REFRESH current positions with recent prices -->
<g id="edge2" class="edge"><title>Fetch PRICES for symbols&#45;&gt;REFRESH current positions with recent prices</title>
<path fill="none" stroke="black" d="M288.16,-360.411C273.712,-351.132 255.506,-339.441 239.814,-329.363"/>
<polygon fill="black" stroke="black" points="241.701,-326.415 231.395,-323.956 237.918,-332.305 241.701,-326.415"/>
</g>
<!-- Calculate PROSPECTS by executing strategy library -->
<g id="node9" class="node"><title>Calculate PROSPECTS by executing strategy library</title>
<ellipse fill="none" stroke="black" cx="520.992" cy="-234" rx="215.562" ry="18"/>
<text text-anchor="middle" x="520.992" y="-230.3" font-family="Helvetica,sans-Serif" font-size="14.00">Calculate PROSPECTS by executing strategy library</text>
</g>
<!-- Fetch PRICES for symbols&#45;&gt;Calculate PROSPECTS by executing strategy library -->
<g id="edge4" class="edge"><title>Fetch PRICES for symbols&#45;&gt;Calculate PROSPECTS by executing strategy library</title>
<path fill="none" stroke="black" d="M344.126,-360.437C361.87,-350.395 384.571,-337.039 403.992,-324 434.941,-303.221 468.661,-277.181 491.915,-258.647"/>
<polygon fill="black" stroke="black" points="494.369,-261.166 499.985,-252.182 489.992,-255.703 494.369,-261.166"/>
</g>
<!-- REFRESH current positions with recent prices&#45;&gt;review -->
<g id="edge3" class="edge"><title>REFRESH current positions with recent prices&#45;&gt;review</title>
<path fill="none" stroke="black" d="M196.835,-287.697C193.078,-279.728 188.539,-270.1 184.374,-261.264"/>
<polygon fill="black" stroke="black" points="187.485,-259.657 180.055,-252.104 181.154,-262.642 187.485,-259.657"/>
</g>
<!-- Calculate PROSPECTS by executing strategy library&#45;&gt;consolidate -->
<g id="edge5" class="edge"><title>Calculate PROSPECTS by executing strategy library&#45;&gt;consolidate</title>
<path fill="none" stroke="black" d="M521.162,-215.71C520.532,-196.546 516.998,-165.51 501.992,-144 493.174,-131.36 480.275,-121.086 467.219,-113.067"/>
<polygon fill="black" stroke="black" points="468.616,-109.832 458.203,-107.873 465.122,-115.898 468.616,-109.832"/>
</g>
</g>
</svg>
