<?xml version="1.0" encoding="UTF-8" standalone="no"?>
<!DOCTYPE svg PUBLIC "-//W3C//DTD SVG 1.1//EN"
 "http://www.w3.org/Graphics/SVG/1.1/DTD/svg11.dtd">
<!-- Generated by graphviz version 2.38.0 (20140413.2041)
 -->
<!-- Title: %3 Pages: 1 -->
<svg width="730pt" height="620pt"
 viewBox="0.00 0.00 730.21 620.00" xmlns="http://www.w3.org/2000/svg" xmlns:xlink="http://www.w3.org/1999/xlink">
<g id="graph0" class="graph" transform="scale(1 1) rotate(0) translate(4 616)">
<title>%3</title>
<polygon fill="white" stroke="none" points="-4,4 -4,-616 726.214,-616 726.214,4 -4,4"/>
<!-- review -->
<g id="node1" class="node"><title>review</title>
<ellipse fill="none" stroke="black" cx="157.433" cy="-378" rx="115.08" ry="18"/>
<text text-anchor="middle" x="157.433" y="-374.3" font-family="Helvetica,sans-Serif" font-size="14.00">REVIEW existing positions</text>
</g>
<!-- purge -->
<g id="node2" class="node"><title>purge</title>
<ellipse fill="none" stroke="black" cx="224.433" cy="-306" rx="187.367" ry="18"/>
<text text-anchor="middle" x="224.433" y="-302.3" font-family="Helvetica,sans-Serif" font-size="14.00">PURGE closed positions (old or ready to sell)</text>
</g>
<!-- review&#45;&gt;purge -->
<g id="edge6" class="edge"><title>review&#45;&gt;purge</title>
<path fill="none" stroke="black" d="M173.652,-360.055C181.842,-351.498 191.929,-340.959 200.949,-331.535"/>
<polygon fill="black" stroke="black" points="203.512,-333.92 207.898,-324.275 198.455,-329.079 203.512,-333.92"/>
</g>
<!-- consolidate -->
<g id="node3" class="node"><title>consolidate</title>
<ellipse fill="none" stroke="black" cx="348.433" cy="-234" rx="225.56" ry="18"/>
<text text-anchor="middle" x="348.433" y="-230.3" font-family="Helvetica,sans-Serif" font-size="14.00">CONSOLIDATE reviewed positions and new prospects</text>
</g>
<!-- purge&#45;&gt;consolidate -->
<g id="edge7" class="edge"><title>purge&#45;&gt;consolidate</title>
<path fill="none" stroke="black" d="M254.45,-288.055C270.93,-278.752 291.561,-267.105 309.292,-257.096"/>
<polygon fill="black" stroke="black" points="311.275,-259.996 318.263,-252.032 307.834,-253.9 311.275,-259.996"/>
</g>
<!-- Create SUMMARY of trades for this period -->
<g id="node8" class="node"><title>Create SUMMARY of trades for this period</title>
<ellipse fill="none" stroke="black" cx="348.433" cy="-162" rx="177.369" ry="18"/>
<text text-anchor="middle" x="348.433" y="-158.3" font-family="Helvetica,sans-Serif" font-size="14.00">Create SUMMARY of trades for this period</text>
</g>
<!-- consolidate&#45;&gt;Create SUMMARY of trades for this period -->
<g id="edge8" class="edge"><title>consolidate&#45;&gt;Create SUMMARY of trades for this period</title>
<path fill="none" stroke="black" d="M348.433,-215.697C348.433,-207.983 348.433,-198.712 348.433,-190.112"/>
<polygon fill="black" stroke="black" points="351.933,-190.104 348.433,-180.104 344.933,-190.104 351.933,-190.104"/>
</g>
<!-- Fetch all SYMBOLS from CryptoCompare -->
<g id="node4" class="node"><title>Fetch all SYMBOLS from CryptoCompare</title>
<ellipse fill="none" stroke="black" cx="299.433" cy="-594" rx="174.669" ry="18"/>
<text text-anchor="middle" x="299.433" y="-590.3" font-family="Helvetica,sans-Serif" font-size="14.00">Fetch all SYMBOLS from CryptoCompare</text>
</g>
<!-- Fetch PRICES for symbols -->
<g id="node5" class="node"><title>Fetch PRICES for symbols</title>
<ellipse fill="none" stroke="black" cx="299.433" cy="-522" rx="115.88" ry="18"/>
<text text-anchor="middle" x="299.433" y="-518.3" font-family="Helvetica,sans-Serif" font-size="14.00">Fetch PRICES for symbols</text>
</g>
<!-- Fetch all SYMBOLS from CryptoCompare&#45;&gt;Fetch PRICES for symbols -->
<g id="edge1" class="edge"><title>Fetch all SYMBOLS from CryptoCompare&#45;&gt;Fetch PRICES for symbols</title>
<path fill="none" stroke="black" d="M299.433,-575.697C299.433,-567.983 299.433,-558.712 299.433,-550.112"/>
<polygon fill="black" stroke="black" points="302.933,-550.104 299.433,-540.104 295.933,-550.104 302.933,-550.104"/>
</g>
<!-- REFRESH current positions with recent prices -->
<g id="node6" class="node"><title>REFRESH current positions with recent prices</title>
<ellipse fill="none" stroke="black" cx="190.433" cy="-450" rx="190.366" ry="18"/>
<text text-anchor="middle" x="190.433" y="-446.3" font-family="Helvetica,sans-Serif" font-size="14.00">REFRESH current positions with recent prices</text>
</g>
<!-- Fetch PRICES for symbols&#45;&gt;REFRESH current positions with recent prices -->
<g id="edge2" class="edge"><title>Fetch PRICES for symbols&#45;&gt;REFRESH current positions with recent prices</title>
<path fill="none" stroke="black" d="M273.602,-504.411C259.154,-495.132 240.948,-483.441 225.256,-473.363"/>
<polygon fill="black" stroke="black" points="227.142,-470.415 216.836,-467.956 223.359,-476.305 227.142,-470.415"/>
</g>
<!-- Calculate PROSPECTS by executing strategy library -->
<g id="node7" class="node"><title>Calculate PROSPECTS by executing strategy library</title>
<ellipse fill="none" stroke="black" cx="506.433" cy="-378" rx="215.562" ry="18"/>
<text text-anchor="middle" x="506.433" y="-374.3" font-family="Helvetica,sans-Serif" font-size="14.00">Calculate PROSPECTS by executing strategy library</text>
</g>
<!-- Fetch PRICES for symbols&#45;&gt;Calculate PROSPECTS by executing strategy library -->
<g id="edge4" class="edge"><title>Fetch PRICES for symbols&#45;&gt;Calculate PROSPECTS by executing strategy library</title>
<path fill="none" stroke="black" d="M329.567,-504.437C347.311,-494.395 370.012,-481.039 389.433,-468 420.382,-447.221 454.102,-421.181 477.357,-402.647"/>
<polygon fill="black" stroke="black" points="479.81,-405.166 485.426,-396.182 475.433,-399.703 479.81,-405.166"/>
</g>
<!-- REFRESH current positions with recent prices&#45;&gt;review -->
<g id="edge3" class="edge"><title>REFRESH current positions with recent prices&#45;&gt;review</title>
<path fill="none" stroke="black" d="M182.276,-431.697C178.519,-423.728 173.98,-414.1 169.815,-405.264"/>
<polygon fill="black" stroke="black" points="172.927,-403.657 165.497,-396.104 166.595,-406.642 172.927,-403.657"/>
</g>
<!-- Calculate PROSPECTS by executing strategy library&#45;&gt;consolidate -->
<g id="edge5" class="edge"><title>Calculate PROSPECTS by executing strategy library&#45;&gt;consolidate</title>
<path fill="none" stroke="black" d="M491.373,-359.766C474.793,-341.198 446.959,-311.197 420.433,-288 408.377,-277.457 394.342,-266.802 381.882,-257.839"/>
<polygon fill="black" stroke="black" points="383.732,-254.86 373.551,-251.926 379.68,-260.568 383.732,-254.86"/>
</g>
<!-- RENDER report (web page) -->
<g id="node9" class="node"><title>RENDER report (web page)</title>
<ellipse fill="none" stroke="black" cx="348.433" cy="-90" rx="119.679" ry="18"/>
<text text-anchor="middle" x="348.433" y="-86.3" font-family="Helvetica,sans-Serif" font-size="14.00">RENDER report (web page)</text>
</g>
<!-- Create SUMMARY of trades for this period&#45;&gt;RENDER report (web page) -->
<g id="edge9" class="edge"><title>Create SUMMARY of trades for this period&#45;&gt;RENDER report (web page)</title>
<path fill="none" stroke="black" d="M348.433,-143.697C348.433,-135.983 348.433,-126.712 348.433,-118.112"/>
<polygon fill="black" stroke="black" points="351.933,-118.104 348.433,-108.104 344.933,-118.104 351.933,-118.104"/>
</g>
<!-- Send ALERTs -->
<g id="node10" class="node"><title>Send ALERTs</title>
<ellipse fill="none" stroke="black" cx="348.433" cy="-18" rx="66.0889" ry="18"/>
<text text-anchor="middle" x="348.433" y="-14.3" font-family="Helvetica,sans-Serif" font-size="14.00">Send ALERTs</text>
</g>
<!-- RENDER report (web page)&#45;&gt;Send ALERTs -->
<g id="edge10" class="edge"><title>RENDER report (web page)&#45;&gt;Send ALERTs</title>
<path fill="none" stroke="black" d="M348.433,-71.6966C348.433,-63.9827 348.433,-54.7125 348.433,-46.1124"/>
<polygon fill="black" stroke="black" points="351.933,-46.1043 348.433,-36.1043 344.933,-46.1044 351.933,-46.1043"/>
</g>
</g>
</svg>
