<?xml version="1.0" encoding="UTF-8" standalone="no"?>
<!DOCTYPE svg PUBLIC "-//W3C//DTD SVG 1.1//EN"
 "http://www.w3.org/Graphics/SVG/1.1/DTD/svg11.dtd">
<!-- Generated by graphviz version 2.38.0 (20140413.2041)
 -->
<!-- Title: %3 Pages: 1 -->
<svg width="730pt" height="476pt"
 viewBox="0.00 0.00 730.21 476.00" xmlns="http://www.w3.org/2000/svg" xmlns:xlink="http://www.w3.org/1999/xlink">
<g id="graph0" class="graph" transform="scale(1 1) rotate(0) translate(4 472)">
<title>%3</title>
<polygon fill="white" stroke="none" points="-4,4 -4,-472 726.214,-472 726.214,4 -4,4"/>
<!-- review -->
<g id="node1" class="node"><title>review</title>
<ellipse fill="none" stroke="black" cx="157.433" cy="-234" rx="115.08" ry="18"/>
<text text-anchor="middle" x="157.433" y="-230.3" font-family="Helvetica,sans-Serif" font-size="14.00">REVIEW existing positions</text>
</g>
<!-- purge -->
<g id="node2" class="node"><title>purge</title>
<ellipse fill="none" stroke="black" cx="332.433" cy="-162" rx="107.482" ry="18"/>
<text text-anchor="middle" x="332.433" y="-158.3" font-family="Helvetica,sans-Serif" font-size="14.00">PURGE closed positions</text>
</g>
<!-- review&#45;&gt;purge -->
<g id="edge6" class="edge"><title>review&#45;&gt;purge</title>
<path fill="none" stroke="black" d="M197.582,-216.941C223.127,-206.722 256.378,-193.422 283.47,-182.585"/>
<polygon fill="black" stroke="black" points="284.788,-185.828 292.773,-178.864 282.189,-179.328 284.788,-185.828"/>
</g>
<!-- balance -->
<g id="node4" class="node"><title>balance</title>
<ellipse fill="none" stroke="black" cx="157.433" cy="-90" rx="90.9839" ry="18"/>
<text text-anchor="middle" x="157.433" y="-86.3" font-family="Helvetica,sans-Serif" font-size="14.00">Calculate BALANCE</text>
</g>
<!-- review&#45;&gt;balance -->
<g id="edge9" class="edge"><title>review&#45;&gt;balance</title>
<path fill="none" stroke="black" d="M157.433,-215.871C157.433,-191.67 157.433,-147.211 157.433,-118.393"/>
<polygon fill="black" stroke="black" points="160.933,-118.189 157.433,-108.189 153.933,-118.189 160.933,-118.189"/>
</g>
<!-- consolidate -->
<g id="node3" class="node"><title>consolidate</title>
<ellipse fill="none" stroke="black" cx="484.433" cy="-90" rx="217.962" ry="18"/>
<text text-anchor="middle" x="484.433" y="-86.3" font-family="Helvetica,sans-Serif" font-size="14.00">CONSOLIDATE purged positions and new prospects</text>
</g>
<!-- purge&#45;&gt;consolidate -->
<g id="edge7" class="edge"><title>purge&#45;&gt;consolidate</title>
<path fill="none" stroke="black" d="M367.305,-144.941C388.489,-135.185 415.775,-122.619 438.68,-112.071"/>
<polygon fill="black" stroke="black" points="440.251,-115.2 447.87,-107.838 437.323,-108.842 440.251,-115.2"/>
</g>
<!-- index -->
<g id="node5" class="node"><title>index</title>
<ellipse fill="none" stroke="black" cx="320.433" cy="-18" rx="152.173" ry="18"/>
<text text-anchor="middle" x="320.433" y="-14.3" font-family="Helvetica,sans-Serif" font-size="14.00">Create INDEX (web page summary)</text>
</g>
<!-- consolidate&#45;&gt;index -->
<g id="edge8" class="edge"><title>consolidate&#45;&gt;index</title>
<path fill="none" stroke="black" d="M445.151,-72.2333C422.145,-62.4138 392.916,-49.9378 368.537,-39.5323"/>
<polygon fill="black" stroke="black" points="369.683,-36.2157 359.111,-35.509 366.935,-42.6538 369.683,-36.2157"/>
</g>
<!-- balance&#45;&gt;index -->
<g id="edge10" class="edge"><title>balance&#45;&gt;index</title>
<path fill="none" stroke="black" d="M193.608,-73.4647C216.895,-63.4643 247.42,-50.3554 272.688,-39.5042"/>
<polygon fill="black" stroke="black" points="274.281,-42.6292 282.088,-35.4672 271.518,-36.1972 274.281,-42.6292"/>
</g>
<!-- Fetch all SYMBOLS from CryptoCompare -->
<g id="node6" class="node"><title>Fetch all SYMBOLS from CryptoCompare</title>
<ellipse fill="none" stroke="black" cx="299.433" cy="-450" rx="174.669" ry="18"/>
<text text-anchor="middle" x="299.433" y="-446.3" font-family="Helvetica,sans-Serif" font-size="14.00">Fetch all SYMBOLS from CryptoCompare</text>
</g>
<!-- Fetch PRICES for symbols -->
<g id="node7" class="node"><title>Fetch PRICES for symbols</title>
<ellipse fill="none" stroke="black" cx="299.433" cy="-378" rx="115.88" ry="18"/>
<text text-anchor="middle" x="299.433" y="-374.3" font-family="Helvetica,sans-Serif" font-size="14.00">Fetch PRICES for symbols</text>
</g>
<!-- Fetch all SYMBOLS from CryptoCompare&#45;&gt;Fetch PRICES for symbols -->
<g id="edge1" class="edge"><title>Fetch all SYMBOLS from CryptoCompare&#45;&gt;Fetch PRICES for symbols</title>
<path fill="none" stroke="black" d="M299.433,-431.697C299.433,-423.983 299.433,-414.712 299.433,-406.112"/>
<polygon fill="black" stroke="black" points="302.933,-406.104 299.433,-396.104 295.933,-406.104 302.933,-406.104"/>
</g>
<!-- REFRESH current positions with recent prices -->
<g id="node8" class="node"><title>REFRESH current positions with recent prices</title>
<ellipse fill="none" stroke="black" cx="190.433" cy="-306" rx="190.366" ry="18"/>
<text text-anchor="middle" x="190.433" y="-302.3" font-family="Helvetica,sans-Serif" font-size="14.00">REFRESH current positions with recent prices</text>
</g>
<!-- Fetch PRICES for symbols&#45;&gt;REFRESH current positions with recent prices -->
<g id="edge2" class="edge"><title>Fetch PRICES for symbols&#45;&gt;REFRESH current positions with recent prices</title>
<path fill="none" stroke="black" d="M273.602,-360.411C259.154,-351.132 240.948,-339.441 225.256,-329.363"/>
<polygon fill="black" stroke="black" points="227.142,-326.415 216.836,-323.956 223.359,-332.305 227.142,-326.415"/>
</g>
<!-- Calculate PROSPECTS by executing strategy library -->
<g id="node9" class="node"><title>Calculate PROSPECTS by executing strategy library</title>
<ellipse fill="none" stroke="black" cx="506.433" cy="-234" rx="215.562" ry="18"/>
<text text-anchor="middle" x="506.433" y="-230.3" font-family="Helvetica,sans-Serif" font-size="14.00">Calculate PROSPECTS by executing strategy library</text>
</g>
<!-- Fetch PRICES for symbols&#45;&gt;Calculate PROSPECTS by executing strategy library -->
<g id="edge4" class="edge"><title>Fetch PRICES for symbols&#45;&gt;Calculate PROSPECTS by executing strategy library</title>
<path fill="none" stroke="black" d="M329.567,-360.437C347.311,-350.395 370.012,-337.039 389.433,-324 420.382,-303.221 454.102,-277.181 477.357,-258.647"/>
<polygon fill="black" stroke="black" points="479.81,-261.166 485.426,-252.182 475.433,-255.703 479.81,-261.166"/>
</g>
<!-- REFRESH current positions with recent prices&#45;&gt;review -->
<g id="edge3" class="edge"><title>REFRESH current positions with recent prices&#45;&gt;review</title>
<path fill="none" stroke="black" d="M182.276,-287.697C178.519,-279.728 173.98,-270.1 169.815,-261.264"/>
<polygon fill="black" stroke="black" points="172.927,-259.657 165.497,-252.104 166.595,-262.642 172.927,-259.657"/>
</g>
<!-- Calculate PROSPECTS by executing strategy library&#45;&gt;consolidate -->
<g id="edge5" class="edge"><title>Calculate PROSPECTS by executing strategy library&#45;&gt;consolidate</title>
<path fill="none" stroke="black" d="M503.779,-215.871C500.03,-191.67 493.142,-147.211 488.677,-118.393"/>
<polygon fill="black" stroke="black" points="492.086,-117.535 487.096,-108.189 485.169,-118.607 492.086,-117.535"/>
</g>
</g>
</svg>
