<?xml version="1.0" encoding="UTF-8" standalone="no"?>
<!DOCTYPE svg PUBLIC "-//W3C//DTD SVG 1.1//EN"
 "http://www.w3.org/Graphics/SVG/1.1/DTD/svg11.dtd">
<!-- Generated by graphviz version 2.38.0 (20140413.2041)
 -->
<!-- Title: %3 Pages: 1 -->
<svg width="768pt" height="476pt"
 viewBox="0.00 0.00 768.12 476.00" xmlns="http://www.w3.org/2000/svg" xmlns:xlink="http://www.w3.org/1999/xlink">
<g id="graph0" class="graph" transform="scale(1 1) rotate(0) translate(4 472)">
<title>%3</title>
<polygon fill="white" stroke="none" points="-4,4 -4,-472 764.117,-472 764.117,4 -4,4"/>
<!-- Fetch all SYMBOLS from CryptoCompare -->
<g id="node1" class="node"><title>Fetch all SYMBOLS from CryptoCompare</title>
<ellipse fill="none" stroke="black" cx="349.336" cy="-450" rx="174.669" ry="18"/>
<text text-anchor="middle" x="349.336" y="-446.3" font-family="Helvetica,sans-Serif" font-size="14.00">Fetch all SYMBOLS from CryptoCompare</text>
</g>
<!-- Fetch PRICES for symbols -->
<g id="node2" class="node"><title>Fetch PRICES for symbols</title>
<ellipse fill="none" stroke="black" cx="349.336" cy="-378" rx="115.88" ry="18"/>
<text text-anchor="middle" x="349.336" y="-374.3" font-family="Helvetica,sans-Serif" font-size="14.00">Fetch PRICES for symbols</text>
</g>
<!-- Fetch all SYMBOLS from CryptoCompare&#45;&gt;Fetch PRICES for symbols -->
<g id="edge1" class="edge"><title>Fetch all SYMBOLS from CryptoCompare&#45;&gt;Fetch PRICES for symbols</title>
<path fill="none" stroke="black" d="M349.336,-431.697C349.336,-423.983 349.336,-414.712 349.336,-406.112"/>
<polygon fill="black" stroke="black" points="352.836,-406.104 349.336,-396.104 345.836,-406.104 352.836,-406.104"/>
</g>
<!-- REFRESH current positions with recent prices -->
<g id="node3" class="node"><title>REFRESH current positions with recent prices</title>
<ellipse fill="none" stroke="black" cx="198.336" cy="-306" rx="190.366" ry="18"/>
<text text-anchor="middle" x="198.336" y="-302.3" font-family="Helvetica,sans-Serif" font-size="14.00">REFRESH current positions with recent prices</text>
</g>
<!-- Fetch PRICES for symbols&#45;&gt;REFRESH current positions with recent prices -->
<g id="edge2" class="edge"><title>Fetch PRICES for symbols&#45;&gt;REFRESH current positions with recent prices</title>
<path fill="none" stroke="black" d="M314.314,-360.765C293.257,-351.003 266.235,-338.476 243.572,-327.97"/>
<polygon fill="black" stroke="black" points="245.025,-324.786 234.48,-323.756 242.081,-331.137 245.025,-324.786"/>
</g>
<!-- Calculate PROSPECTS by executing strategy library -->
<g id="node5" class="node"><title>Calculate PROSPECTS by executing strategy library</title>
<ellipse fill="none" stroke="black" cx="544.336" cy="-234" rx="215.562" ry="18"/>
<text text-anchor="middle" x="544.336" y="-230.3" font-family="Helvetica,sans-Serif" font-size="14.00">Calculate PROSPECTS by executing strategy library</text>
</g>
<!-- Fetch PRICES for symbols&#45;&gt;Calculate PROSPECTS by executing strategy library -->
<g id="edge4" class="edge"><title>Fetch PRICES for symbols&#45;&gt;Calculate PROSPECTS by executing strategy library</title>
<path fill="none" stroke="black" d="M372.471,-360.153C407.268,-334.814 473.178,-286.818 512.49,-258.191"/>
<polygon fill="black" stroke="black" points="514.905,-260.762 520.928,-252.046 510.784,-255.103 514.905,-260.762"/>
</g>
<!-- REVIEW and close existing positions -->
<g id="node4" class="node"><title>REVIEW and close existing positions</title>
<ellipse fill="none" stroke="black" cx="155.336" cy="-234" rx="155.173" ry="18"/>
<text text-anchor="middle" x="155.336" y="-230.3" font-family="Helvetica,sans-Serif" font-size="14.00">REVIEW and close existing positions</text>
</g>
<!-- REFRESH current positions with recent prices&#45;&gt;REVIEW and close existing positions -->
<g id="edge3" class="edge"><title>REFRESH current positions with recent prices&#45;&gt;REVIEW and close existing positions</title>
<path fill="none" stroke="black" d="M187.707,-287.697C182.708,-279.559 176.645,-269.689 171.124,-260.701"/>
<polygon fill="black" stroke="black" points="174.06,-258.793 165.843,-252.104 168.095,-262.457 174.06,-258.793"/>
</g>
<!-- CONSOLIDATE reviewed positions and new prospects -->
<g id="node6" class="node"><title>CONSOLIDATE reviewed positions and new prospects</title>
<ellipse fill="none" stroke="black" cx="349.336" cy="-162" rx="225.56" ry="18"/>
<text text-anchor="middle" x="349.336" y="-158.3" font-family="Helvetica,sans-Serif" font-size="14.00">CONSOLIDATE reviewed positions and new prospects</text>
</g>
<!-- REVIEW and close existing positions&#45;&gt;CONSOLIDATE reviewed positions and new prospects -->
<g id="edge6" class="edge"><title>REVIEW and close existing positions&#45;&gt;CONSOLIDATE reviewed positions and new prospects</title>
<path fill="none" stroke="black" d="M200.331,-216.765C228.087,-206.75 263.909,-193.824 293.472,-183.157"/>
<polygon fill="black" stroke="black" points="295.019,-186.32 303.238,-179.633 292.644,-179.735 295.019,-186.32"/>
</g>
<!-- Calculate PROSPECTS by executing strategy library&#45;&gt;CONSOLIDATE reviewed positions and new prospects -->
<g id="edge5" class="edge"><title>Calculate PROSPECTS by executing strategy library&#45;&gt;CONSOLIDATE reviewed positions and new prospects</title>
<path fill="none" stroke="black" d="M498.124,-216.411C470.399,-206.458 434.939,-193.729 405.591,-183.194"/>
<polygon fill="black" stroke="black" points="406.487,-179.797 395.893,-179.713 404.122,-186.385 406.487,-179.797"/>
</g>
<!-- Create SUMMARY of trades for this period -->
<g id="node7" class="node"><title>Create SUMMARY of trades for this period</title>
<ellipse fill="none" stroke="black" cx="349.336" cy="-90" rx="177.369" ry="18"/>
<text text-anchor="middle" x="349.336" y="-86.3" font-family="Helvetica,sans-Serif" font-size="14.00">Create SUMMARY of trades for this period</text>
</g>
<!-- CONSOLIDATE reviewed positions and new prospects&#45;&gt;Create SUMMARY of trades for this period -->
<g id="edge7" class="edge"><title>CONSOLIDATE reviewed positions and new prospects&#45;&gt;Create SUMMARY of trades for this period</title>
<path fill="none" stroke="black" d="M349.336,-143.697C349.336,-135.983 349.336,-126.712 349.336,-118.112"/>
<polygon fill="black" stroke="black" points="352.836,-118.104 349.336,-108.104 345.836,-118.104 352.836,-118.104"/>
</g>
<!-- RENDER report (web page) -->
<g id="node8" class="node"><title>RENDER report (web page)</title>
<ellipse fill="none" stroke="black" cx="349.336" cy="-18" rx="119.679" ry="18"/>
<text text-anchor="middle" x="349.336" y="-14.3" font-family="Helvetica,sans-Serif" font-size="14.00">RENDER report (web page)</text>
</g>
<!-- Create SUMMARY of trades for this period&#45;&gt;RENDER report (web page) -->
<g id="edge8" class="edge"><title>Create SUMMARY of trades for this period&#45;&gt;RENDER report (web page)</title>
<path fill="none" stroke="black" d="M349.336,-71.6966C349.336,-63.9827 349.336,-54.7125 349.336,-46.1124"/>
<polygon fill="black" stroke="black" points="352.836,-46.1043 349.336,-36.1043 345.836,-46.1044 352.836,-46.1043"/>
</g>
</g>
</svg>
