<?xml version="1.0" encoding="UTF-8" standalone="no"?>
<!DOCTYPE svg PUBLIC "-//W3C//DTD SVG 1.1//EN"
 "http://www.w3.org/Graphics/SVG/1.1/DTD/svg11.dtd">
<!-- Generated by graphviz version 2.38.0 (20140413.2041)
 -->
<!-- Title: %3 Pages: 1 -->
<svg width="719pt" height="476pt"
 viewBox="0.00 0.00 718.91 476.00" xmlns="http://www.w3.org/2000/svg" xmlns:xlink="http://www.w3.org/1999/xlink">
<g id="graph0" class="graph" transform="scale(1 1) rotate(0) translate(4 472)">
<title>%3</title>
<polygon fill="white" stroke="none" points="-4,4 -4,-472 714.913,-472 714.913,4 -4,4"/>
<!-- review -->
<g id="node1" class="node"><title>review</title>
<ellipse fill="none" stroke="black" cx="168.383" cy="-234" rx="83.3857" ry="18"/>
<text text-anchor="middle" x="168.383" y="-230.3" font-family="Helvetica,sans-Serif" font-size="14.00">REVIEW positions</text>
</g>
<!-- purge -->
<g id="node2" class="node"><title>purge</title>
<ellipse fill="none" stroke="black" cx="318.383" cy="-162" rx="107.482" ry="18"/>
<text text-anchor="middle" x="318.383" y="-158.3" font-family="Helvetica,sans-Serif" font-size="14.00">PURGE closed positions</text>
</g>
<!-- review&#45;&gt;purge -->
<g id="edge6" class="edge"><title>review&#45;&gt;purge</title>
<path fill="none" stroke="black" d="M201.673,-217.465C223.141,-207.446 251.295,-194.308 274.571,-183.445"/>
<polygon fill="black" stroke="black" points="276.303,-186.5 283.885,-179.099 273.343,-180.156 276.303,-186.5"/>
</g>
<!-- balance -->
<g id="node4" class="node"><title>balance</title>
<ellipse fill="none" stroke="black" cx="150.383" cy="-90" rx="90.9839" ry="18"/>
<text text-anchor="middle" x="150.383" y="-86.3" font-family="Helvetica,sans-Serif" font-size="14.00">Calculate BALANCE</text>
</g>
<!-- review&#45;&gt;balance -->
<g id="edge9" class="edge"><title>review&#45;&gt;balance</title>
<path fill="none" stroke="black" d="M166.212,-215.871C163.144,-191.67 157.508,-147.211 153.855,-118.393"/>
<polygon fill="black" stroke="black" points="157.292,-117.67 152.562,-108.189 150.347,-118.55 157.292,-117.67"/>
</g>
<!-- consolidate -->
<g id="node3" class="node"><title>consolidate</title>
<ellipse fill="none" stroke="black" cx="485.383" cy="-90" rx="225.56" ry="18"/>
<text text-anchor="middle" x="485.383" y="-86.3" font-family="Helvetica,sans-Serif" font-size="14.00">CONSOLIDATE reviewed positions and new prospects</text>
</g>
<!-- purge&#45;&gt;consolidate -->
<g id="edge7" class="edge"><title>purge&#45;&gt;consolidate</title>
<path fill="none" stroke="black" d="M356.278,-145.116C379.83,-135.244 410.364,-122.445 435.825,-111.773"/>
<polygon fill="black" stroke="black" points="437.44,-114.891 445.309,-107.797 434.734,-108.435 437.44,-114.891"/>
</g>
<!-- index -->
<g id="node5" class="node"><title>index</title>
<ellipse fill="none" stroke="black" cx="317.383" cy="-18" rx="152.173" ry="18"/>
<text text-anchor="middle" x="317.383" y="-14.3" font-family="Helvetica,sans-Serif" font-size="14.00">Create INDEX (web page summary)</text>
</g>
<!-- consolidate&#45;&gt;index -->
<g id="edge8" class="edge"><title>consolidate&#45;&gt;index</title>
<path fill="none" stroke="black" d="M445.143,-72.2333C421.386,-62.3345 391.15,-49.7361 366.056,-39.2806"/>
<polygon fill="black" stroke="black" points="367.292,-36.0039 356.715,-35.3884 364.6,-42.4654 367.292,-36.0039"/>
</g>
<!-- balance&#45;&gt;index -->
<g id="edge10" class="edge"><title>balance&#45;&gt;index</title>
<path fill="none" stroke="black" d="M187.446,-73.4647C211.409,-63.4203 242.854,-50.2398 268.807,-39.361"/>
<polygon fill="black" stroke="black" points="270.227,-42.5609 278.097,-35.4672 267.521,-36.1051 270.227,-42.5609"/>
</g>
<!-- refresh -->
<g id="node6" class="node"><title>refresh</title>
<ellipse fill="none" stroke="black" cx="192.383" cy="-306" rx="192.266" ry="18"/>
<text text-anchor="middle" x="192.383" y="-302.3" font-family="Helvetica,sans-Serif" font-size="14.00">REFRESH existing positions with recent prices</text>
</g>
<!-- refresh&#45;&gt;review -->
<g id="edge3" class="edge"><title>refresh&#45;&gt;review</title>
<path fill="none" stroke="black" d="M186.45,-287.697C183.777,-279.898 180.557,-270.509 177.581,-261.829"/>
<polygon fill="black" stroke="black" points="180.801,-260.429 174.247,-252.104 174.18,-262.699 180.801,-260.429"/>
</g>
<!-- Fetch all SYMBOLS from CryptoCompare -->
<g id="node7" class="node"><title>Fetch all SYMBOLS from CryptoCompare</title>
<ellipse fill="none" stroke="black" cx="302.383" cy="-450" rx="174.669" ry="18"/>
<text text-anchor="middle" x="302.383" y="-446.3" font-family="Helvetica,sans-Serif" font-size="14.00">Fetch all SYMBOLS from CryptoCompare</text>
</g>
<!-- Fetch PRICES for symbols -->
<g id="node8" class="node"><title>Fetch PRICES for symbols</title>
<ellipse fill="none" stroke="black" cx="302.383" cy="-378" rx="115.88" ry="18"/>
<text text-anchor="middle" x="302.383" y="-374.3" font-family="Helvetica,sans-Serif" font-size="14.00">Fetch PRICES for symbols</text>
</g>
<!-- Fetch all SYMBOLS from CryptoCompare&#45;&gt;Fetch PRICES for symbols -->
<g id="edge1" class="edge"><title>Fetch all SYMBOLS from CryptoCompare&#45;&gt;Fetch PRICES for symbols</title>
<path fill="none" stroke="black" d="M302.383,-431.697C302.383,-423.983 302.383,-414.712 302.383,-406.112"/>
<polygon fill="black" stroke="black" points="305.883,-406.104 302.383,-396.104 298.883,-406.104 305.883,-406.104"/>
</g>
<!-- Fetch PRICES for symbols&#45;&gt;refresh -->
<g id="edge2" class="edge"><title>Fetch PRICES for symbols&#45;&gt;refresh</title>
<path fill="none" stroke="black" d="M276.314,-360.411C261.734,-351.132 243.361,-339.441 227.525,-329.363"/>
<polygon fill="black" stroke="black" points="229.344,-326.372 219.028,-323.956 225.586,-332.278 229.344,-326.372"/>
</g>
<!-- Calculate PROSPECTS by executing strategy library -->
<g id="node9" class="node"><title>Calculate PROSPECTS by executing strategy library</title>
<ellipse fill="none" stroke="black" cx="485.383" cy="-234" rx="215.562" ry="18"/>
<text text-anchor="middle" x="485.383" y="-230.3" font-family="Helvetica,sans-Serif" font-size="14.00">Calculate PROSPECTS by executing strategy library</text>
</g>
<!-- Fetch PRICES for symbols&#45;&gt;Calculate PROSPECTS by executing strategy library -->
<g id="edge4" class="edge"><title>Fetch PRICES for symbols&#45;&gt;Calculate PROSPECTS by executing strategy library</title>
<path fill="none" stroke="black" d="M334.742,-360.637C352.686,-350.963 375.018,-337.907 393.383,-324 419.231,-304.427 445.499,-278.256 463.312,-259.366"/>
<polygon fill="black" stroke="black" points="465.912,-261.71 470.17,-252.008 460.791,-256.937 465.912,-261.71"/>
</g>
<!-- Calculate PROSPECTS by executing strategy library&#45;&gt;consolidate -->
<g id="edge5" class="edge"><title>Calculate PROSPECTS by executing strategy library&#45;&gt;consolidate</title>
<path fill="none" stroke="black" d="M485.383,-215.871C485.383,-191.67 485.383,-147.211 485.383,-118.393"/>
<polygon fill="black" stroke="black" points="488.883,-118.189 485.383,-108.189 481.883,-118.189 488.883,-118.189"/>
</g>
</g>
</svg>
